<svg width="578" height="292" viewBox="0 0 578 292" fill="none" xmlns="http://www.w3.org/2000/svg">
<g filter="url(#filter0_d_2_321)">
<path d="M133.5 78L46.5 163.8V183H106.5V132L130.5 108V225H106.5V204H25.5V163.2C25.5 160.8 25.5 158.9 25.5 157.5C25.7 156.1 26 154.9 26.4 153.9C26.8 152.7 27.4 151.7 28.2 150.9C29 149.9 30 148.7 31.2 147.3L99.9 78H133.5Z" fill="white"/>
</g>
<g filter="url(#filter1_f_2_321)">
<path d="M379.359 219.777C382.275 216.194 379.646 211.056 375.035 210.98C316.168 210.009 266.936 211.1 206.046 214.814C201.44 215.095 199.039 220.35 202.114 223.799C223.451 247.733 254.482 262.8 289.024 262.8C325.461 262.8 357.993 246.034 379.359 219.777Z" stroke="#4C4CFF" stroke-linecap="round" stroke-linejoin="round"/>
<path d="M187.898 87.9381C185.625 91.9087 188.974 96.5316 193.508 95.9862C260.882 87.8803 310.54 85.4631 380.963 89.7625C385.545 90.0422 388.629 85.1898 386.085 81.3587C365.205 49.9178 329.528 29.2 289.023 29.2C245.756 29.2 207.997 52.8401 187.898 87.9381Z" stroke="#4C4CFF" stroke-linecap="round" stroke-linejoin="round"/>
</g>
<g filter="url(#filter2_f_2_321)">
<path d="M379.359 219.777C382.275 216.194 379.646 211.056 375.035 210.98C316.168 210.009 266.936 211.1 206.046 214.814C201.44 215.095 199.039 220.35 202.114 223.799C223.451 247.733 254.482 262.8 289.024 262.8C325.461 262.8 357.993 246.034 379.359 219.777Z" stroke="#4C4CFF" stroke-linecap="round" stroke-linejoin="round"/>
<path d="M187.898 87.9381C185.625 91.9087 188.974 96.5316 193.508 95.9862C260.882 87.8803 310.54 85.4631 380.963 89.7625C385.545 90.0422 388.629 85.1898 386.085 81.3587C365.205 49.9178 329.528 29.2 289.023 29.2C245.756 29.2 207.997 52.8401 187.898 87.9381Z" stroke="#4C4CFF" stroke-linecap="round" stroke-linejoin="round"/>
</g>
<path d="M379.358 219.777C382.274 216.194 379.645 211.056 375.034 210.981C316.167 210.009 266.935 211.1 206.045 214.814C201.439 215.095 199.038 220.35 202.113 223.799C223.45 247.733 254.481 262.8 289.023 262.8C325.46 262.8 357.992 246.034 379.358 219.777Z" stroke="#4C4CFF" stroke-linecap="round" stroke-linejoin="round"/>
<path d="M187.898 87.9381C185.625 91.9087 188.974 96.5316 193.508 95.9862C260.882 87.8803 310.54 85.4631 380.963 89.7625C385.545 90.0422 388.629 85.1898 386.085 81.3587C365.205 49.9178 329.528 29.2 289.023 29.2C245.756 29.2 207.997 52.8401 187.898 87.9381Z" stroke="#4C4CFF" stroke-linecap="round" stroke-linejoin="round"/>
<path d="M379.358 219.777C382.274 216.194 379.645 211.056 375.034 210.981C316.167 210.009 266.935 211.1 206.045 214.814C201.439 215.095 199.038 220.35 202.113 223.799C223.45 247.733 254.481 262.8 289.023 262.8C325.46 262.8 357.992 246.034 379.358 219.777Z" stroke="white" stroke-width="0.5" stroke-linecap="round" stroke-linejoin="round"/>
<path d="M187.898 87.9381C185.625 91.9087 188.974 96.5316 193.508 95.9862C260.882 87.8803 310.54 85.4631 380.963 89.7625C385.545 90.0422 388.629 85.1898 386.085 81.3587C365.205 49.9178 329.528 29.2 289.023 29.2C245.756 29.2 207.997 52.8401 187.898 87.9381Z" stroke="white" stroke-width="0.5" stroke-linecap="round" stroke-linejoin="round"/>
<g filter="url(#filter3_f_2_321)">
<path d="M404.676 160.399C405.425 154.254 400.673 148.987 394.518 148.49C319.495 142.428 260.95 141.475 183.512 145.559C177.343 145.884 172.444 151.02 173.024 157.187C173.847 165.941 175.634 174.414 178.277 182.498C179.801 187.156 184.339 190.038 189.225 189.869C262.108 187.337 318.475 187.153 389.162 189.068C394.052 189.2 398.569 186.282 400.056 181.609C402.225 174.79 403.786 167.699 404.676 160.399Z" stroke="#E33CD5" stroke-linecap="round" stroke-linejoin="round"/>
</g>
<g filter="url(#filter4_f_2_321)">
<path d="M404.676 160.399C405.425 154.254 400.673 148.987 394.518 148.49C319.495 142.428 260.95 141.475 183.512 145.559C177.343 145.884 172.444 151.02 173.024 157.187C173.847 165.941 175.634 174.414 178.277 182.498C179.801 187.156 184.339 190.038 189.225 189.869C262.108 187.337 318.475 187.153 389.162 189.068C394.052 189.2 398.569 186.282 400.056 181.609C402.225 174.79 403.786 167.699 404.676 160.399Z" stroke="#E33CD5" stroke-linecap="round" stroke-linejoin="round"/>
</g>
<path d="M404.676 160.399C405.425 154.254 400.673 148.987 394.518 148.49C319.495 142.428 260.95 141.475 183.512 145.559C177.343 145.884 172.444 151.02 173.024 157.187C173.847 165.941 175.634 174.414 178.277 182.498C179.801 187.156 184.339 190.038 189.225 189.869C262.108 187.337 318.475 187.153 389.162 189.068C394.052 189.2 398.569 186.282 400.056 181.609C402.225 174.79 403.786 167.699 404.676 160.399Z" stroke="#E33CD5" stroke-linecap="round" stroke-linejoin="round"/>
<path d="M404.676 160.399C405.425 154.254 400.673 148.987 394.518 148.49C319.495 142.428 260.95 141.475 183.512 145.559C177.343 145.884 172.444 151.02 173.024 157.187C173.847 165.941 175.634 174.414 178.277 182.498C179.801 187.156 184.339 190.038 189.225 189.869C262.108 187.337 318.475 187.153 389.162 189.068C394.052 189.2 398.569 186.282 400.056 181.609C402.225 174.79 403.786 167.699 404.676 160.399Z" stroke="white" stroke-width="0.5" stroke-linecap="round" stroke-linejoin="round"/>
<g filter="url(#filter5_f_2_321)">
<path d="M172.505 119.72C188.038 108.04 203.57 108.04 219.103 119.72C234.636 131.4 250.168 131.4 265.701 119.72C281.234 108.04 296.766 108.04 312.299 119.72C327.832 131.4 343.364 131.4 358.897 119.72C374.43 108.04 389.962 108.04 405.495 119.72" stroke="#00CCCC" stroke-linecap="round" stroke-linejoin="round"/>
</g>
<g filter="url(#filter6_f_2_321)">
<path d="M172.505 119.72C188.038 108.04 203.57 108.04 219.103 119.72C234.636 131.4 250.168 131.4 265.701 119.72C281.234 108.04 296.766 108.04 312.299 119.72C327.832 131.4 343.364 131.4 358.897 119.72C374.43 108.04 389.962 108.04 405.495 119.72" stroke="#00CCCC" stroke-linecap="round" stroke-linejoin="round"/>
</g>
<path d="M172.505 119.72C188.038 108.04 203.57 108.04 219.103 119.72C234.636 131.4 250.168 131.4 265.701 119.72C281.234 108.04 296.766 108.04 312.299 119.72C327.832 131.4 343.364 131.4 358.897 119.72C374.43 108.04 389.962 108.04 405.495 119.72" stroke="#00CCCC" stroke-linecap="round" stroke-linejoin="round"/>
<path d="M172.505 119.72C188.038 108.04 203.57 108.04 219.103 119.72C234.636 131.4 250.168 131.4 265.701 119.72C281.234 108.04 296.766 108.04 312.299 119.72C327.832 131.4 343.364 131.4 358.897 119.72C374.43 108.04 389.962 108.04 405.495 119.72" stroke="white" stroke-width="0.5" stroke-linecap="round" stroke-linejoin="round"/>
<g filter="url(#filter7_f_2_321)">
<path d="M251.619 229.612C254.468 231.11 255.868 234.062 254.747 236.204C253.626 238.346 250.408 238.867 247.56 237.369C244.711 235.87 243.311 232.919 244.432 230.777C245.553 228.635 248.771 228.113 251.619 229.612Z" stroke="#4C4CFF"/>
<path d="M338.212 71.9494C342.873 73.2016 347.326 71.6911 348.159 68.5757C348.992 65.4602 345.888 61.9196 341.227 60.6674C336.566 59.4152 332.113 60.9257 331.28 64.0412C330.447 67.1566 333.551 70.6972 338.212 71.9494Z" stroke="#4C4CFF"/>
<path d="M323.75 229.272C326.857 228.437 329.882 229.654 330.507 231.991C331.131 234.327 329.118 236.898 326.011 237.733C322.904 238.568 319.879 237.35 319.254 235.014C318.63 232.677 320.642 230.106 323.75 229.272Z" stroke="#4C4CFF"/>
<path d="M280.263 64.2399C275.437 64.2399 271.526 66.8546 271.526 70.0799C271.526 73.3053 275.437 75.9199 280.263 75.9199C285.088 75.9199 289 73.3053 289 70.0799C289 66.8546 285.088 64.2399 280.263 64.2399Z" stroke="#4C4CFF"/>
<path d="M303.264 54.4292C307.925 55.6813 312.378 54.1708 313.211 51.0554C314.043 47.94 310.94 44.3993 306.279 43.1471C301.618 41.895 297.164 43.4054 296.332 46.5209C295.499 49.6363 298.603 53.177 303.264 54.4292Z" stroke="#4C4CFF"/>
<path d="M289 239.44C292.217 239.44 294.825 241.401 294.825 243.82C294.825 246.239 292.217 248.2 289 248.2C285.783 248.2 283.175 246.239 283.175 243.82C283.175 241.401 285.783 239.44 289 239.44Z" stroke="#4C4CFF"/>
<path d="M243.902 66.9736C248.175 64.7256 250.427 60.5879 248.932 57.7319C247.438 54.8759 242.762 54.383 238.489 56.631C234.216 58.879 231.964 63.0167 233.459 65.8727C234.954 68.7287 239.629 69.2216 243.902 66.9736Z" stroke="#4C4CFF"/>
</g>
<g filter="url(#filter8_f_2_321)">
<path d="M251.619 229.612C254.468 231.11 255.868 234.062 254.747 236.204C253.626 238.346 250.408 238.867 247.56 237.369C244.711 235.87 243.311 232.919 244.432 230.777C245.553 228.635 248.771 228.113 251.619 229.612Z" stroke="#4C4CFF"/>
<path d="M338.212 71.9494C342.873 73.2016 347.326 71.6911 348.159 68.5757C348.992 65.4602 345.888 61.9196 341.227 60.6674C336.566 59.4152 332.113 60.9257 331.28 64.0412C330.447 67.1566 333.551 70.6972 338.212 71.9494Z" stroke="#4C4CFF"/>
<path d="M323.75 229.272C326.857 228.437 329.882 229.654 330.507 231.991C331.131 234.327 329.118 236.898 326.011 237.733C322.904 238.568 319.879 237.35 319.254 235.014C318.63 232.677 320.642 230.106 323.75 229.272Z" stroke="#4C4CFF"/>
<path d="M280.263 64.2399C275.437 64.2399 271.526 66.8546 271.526 70.0799C271.526 73.3053 275.437 75.9199 280.263 75.9199C285.088 75.9199 289 73.3053 289 70.0799C289 66.8546 285.088 64.2399 280.263 64.2399Z" stroke="#4C4CFF"/>
<path d="M303.264 54.4292C307.925 55.6813 312.378 54.1708 313.211 51.0554C314.043 47.94 310.94 44.3993 306.279 43.1471C301.618 41.895 297.164 43.4054 296.332 46.5209C295.499 49.6363 298.603 53.177 303.264 54.4292Z" stroke="#4C4CFF"/>
<path d="M289 239.44C292.217 239.44 294.825 241.401 294.825 243.82C294.825 246.239 292.217 248.2 289 248.2C285.783 248.2 283.175 246.239 283.175 243.82C283.175 241.401 285.783 239.44 289 239.44Z" stroke="#4C4CFF"/>
<path d="M243.902 66.9736C248.175 64.7256 250.427 60.5879 248.932 57.7319C247.438 54.8759 242.762 54.383 238.489 56.631C234.216 58.879 231.964 63.0167 233.459 65.8727C234.954 68.7287 239.629 69.2216 243.902 66.9736Z" stroke="#4C4CFF"/>
</g>
<path d="M251.619 229.612C254.468 231.11 255.868 234.062 254.747 236.204C253.626 238.346 250.408 238.867 247.56 237.369C244.711 235.87 243.311 232.919 244.432 230.777C245.553 228.635 248.771 228.113 251.619 229.612Z" stroke="#4C4CFF"/>
<path d="M338.212 71.9494C342.873 73.2016 347.326 71.6911 348.159 68.5757C348.992 65.4602 345.888 61.9196 341.227 60.6674C336.566 59.4152 332.113 60.9257 331.28 64.0412C330.447 67.1566 333.551 70.6972 338.212 71.9494Z" stroke="#4C4CFF"/>
<path d="M323.75 229.272C326.857 228.437 329.882 229.654 330.507 231.991C331.131 234.328 329.118 236.898 326.011 237.733C322.904 238.568 319.879 237.351 319.254 235.014C318.63 232.677 320.642 230.107 323.75 229.272Z" stroke="#4C4CFF"/>
<path d="M280.263 64.2399C275.437 64.2399 271.526 66.8546 271.526 70.0799C271.526 73.3053 275.437 75.9199 280.263 75.9199C285.088 75.9199 289 73.3053 289 70.0799C289 66.8546 285.088 64.2399 280.263 64.2399Z" stroke="#4C4CFF"/>
<path d="M303.264 54.4292C307.925 55.6813 312.378 54.1708 313.211 51.0554C314.043 47.94 310.94 44.3993 306.279 43.1471C301.618 41.895 297.164 43.4054 296.332 46.5209C295.499 49.6363 298.603 53.177 303.264 54.4292Z" stroke="#4C4CFF"/>
<path d="M289 239.44C292.217 239.44 294.825 241.401 294.825 243.82C294.825 246.239 292.217 248.2 289 248.2C285.783 248.2 283.175 246.239 283.175 243.82C283.175 241.401 285.783 239.44 289 239.44Z" stroke="#4C4CFF"/>
<path d="M243.902 66.9736C248.175 64.7256 250.427 60.5879 248.932 57.7319C247.438 54.8759 242.762 54.383 238.489 56.631C234.216 58.879 231.964 63.0167 233.459 65.8727C234.954 68.7287 239.629 69.2216 243.902 66.9736Z" stroke="#4C4CFF"/>
<path d="M251.619 229.612C254.468 231.11 255.868 234.062 254.747 236.204C253.626 238.346 250.408 238.867 247.56 237.369C244.711 235.87 243.311 232.919 244.432 230.777C245.553 228.635 248.771 228.113 251.619 229.612Z" stroke="white" stroke-width="0.5"/>
<path d="M338.212 71.9494C342.873 73.2016 347.326 71.6911 348.159 68.5757C348.992 65.4602 345.888 61.9196 341.227 60.6674C336.566 59.4152 332.113 60.9257 331.28 64.0412C330.447 67.1566 333.551 70.6972 338.212 71.9494Z" stroke="white" stroke-width="0.5"/>
<path d="M323.75 229.272C326.857 228.437 329.882 229.654 330.507 231.991C331.131 234.328 329.118 236.898 326.011 237.733C322.904 238.568 319.879 237.351 319.254 235.014C318.63 232.677 320.642 230.107 323.75 229.272Z" stroke="white" stroke-width="0.5"/>
<path d="M280.263 64.2399C275.437 64.2399 271.526 66.8546 271.526 70.0799C271.526 73.3053 275.437 75.9199 280.263 75.9199C285.088 75.9199 289 73.3053 289 70.0799C289 66.8546 285.088 64.2399 280.263 64.2399Z" stroke="white" stroke-width="0.5"/>
<path d="M303.264 54.4292C307.925 55.6813 312.378 54.1708 313.211 51.0554C314.043 47.94 310.94 44.3993 306.279 43.1471C301.618 41.895 297.164 43.4054 296.332 46.5209C295.499 49.6363 298.603 53.177 303.264 54.4292Z" stroke="white" stroke-width="0.5"/>
<path d="M289 239.44C292.217 239.44 294.825 241.401 294.825 243.82C294.825 246.239 292.217 248.2 289 248.2C285.783 248.2 283.175 246.239 283.175 243.82C283.175 241.401 285.783 239.44 289 239.44Z" stroke="white" stroke-width="0.5"/>
<path d="M243.902 66.9736C248.175 64.7256 250.427 60.5879 248.932 57.7319C247.438 54.8759 242.762 54.383 238.489 56.631C234.216 58.879 231.964 63.0167 233.459 65.8727C234.954 68.7287 239.629 69.2216 243.902 66.9736Z" stroke="white" stroke-width="0.5"/>
<g filter="url(#filter9_d_2_321)">
<path d="M555.5 78L468.5 163.8V183H528.5V132L552.5 108V225H528.5V204H447.5V163.2C447.5 160.8 447.5 158.9 447.5 157.5C447.7 156.1 448 154.9 448.4 153.9C448.8 152.7 449.4 151.7 450.2 150.9C451 149.9 452 148.7 453.2 147.3L521.9 78H555.5Z" fill="white"/>
</g>
<defs>
<filter id="filter0_d_2_321" x="22" y="74.5" width="115" height="154" filterUnits="userSpaceOnUse" color-interpolation-filters="sRGB">
<feFlood flood-opacity="0" result="BackgroundImageFix"/>
<feColorMatrix in="SourceAlpha" type="matrix" values="0 0 0 0 0 0 0 0 0 0 0 0 0 0 0 0 0 0 127 0" result="hardAlpha"/>
<feOffset/>
<feGaussianBlur stdDeviation="1.75"/>
<feColorMatrix type="matrix" values="0 0 0 0 1 0 0 0 0 1 0 0 0 0 1 0 0 0 1 0"/>
<feBlend mode="normal" in2="BackgroundImageFix" result="effect1_dropShadow_2_321"/>
<feBlend mode="normal" in="SourceGraphic" in2="effect1_dropShadow_2_321" result="shape"/>
</filter>
<filter id="filter1_f_2_321" x="182.662" y="24.7" width="208.846" height="242.6" filterUnits="userSpaceOnUse" color-interpolation-filters="sRGB">
<feFlood flood-opacity="0" result="BackgroundImageFix"/>
<feBlend mode="normal" in="SourceGraphic" in2="BackgroundImageFix" result="shape"/>
<feGaussianBlur stdDeviation="2" result="effect1_foregroundBlur_2_321"/>
</filter>
<filter id="filter2_f_2_321" x="182.662" y="24.7" width="208.846" height="242.6" filterUnits="userSpaceOnUse" color-interpolation-filters="sRGB">
<feFlood flood-opacity="0" result="BackgroundImageFix"/>
<feBlend mode="normal" in="SourceGraphic" in2="BackgroundImageFix" result="shape"/>
<feGaussianBlur stdDeviation="2" result="effect1_foregroundBlur_2_321"/>
</filter>
<filter id="filter3_f_2_321" x="168.478" y="138.58" width="240.776" height="55.7959" filterUnits="userSpaceOnUse" color-interpolation-filters="sRGB">
<feFlood flood-opacity="0" result="BackgroundImageFix"/>
<feBlend mode="normal" in="SourceGraphic" in2="BackgroundImageFix" result="shape"/>
<feGaussianBlur stdDeviation="2" result="effect1_foregroundBlur_2_321"/>
</filter>
<filter id="filter4_f_2_321" x="168.478" y="138.58" width="240.776" height="55.7959" filterUnits="userSpaceOnUse" color-interpolation-filters="sRGB">
<feFlood flood-opacity="0" result="BackgroundImageFix"/>
<feBlend mode="normal" in="SourceGraphic" in2="BackgroundImageFix" result="shape"/>
<feGaussianBlur stdDeviation="2" result="effect1_foregroundBlur_2_321"/>
</filter>
<filter id="filter5_f_2_321" x="168.005" y="106.46" width="241.991" height="26.52" filterUnits="userSpaceOnUse" color-interpolation-filters="sRGB">
<feFlood flood-opacity="0" result="BackgroundImageFix"/>
<feBlend mode="normal" in="SourceGraphic" in2="BackgroundImageFix" result="shape"/>
<feGaussianBlur stdDeviation="2" result="effect1_foregroundBlur_2_321"/>
</filter>
<filter id="filter6_f_2_321" x="168.005" y="106.46" width="241.991" height="26.52" filterUnits="userSpaceOnUse" color-interpolation-filters="sRGB">
<feFlood flood-opacity="0" result="BackgroundImageFix"/>
<feBlend mode="normal" in="SourceGraphic" in2="BackgroundImageFix" result="shape"/>
<feGaussianBlur stdDeviation="2" result="effect1_foregroundBlur_2_321"/>
</filter>
<filter id="filter7_f_2_321" x="228.497" y="38.2068" width="124.297" height="214.493" filterUnits="userSpaceOnUse" color-interpolation-filters="sRGB">
<feFlood flood-opacity="0" result="BackgroundImageFix"/>
<feBlend mode="normal" in="SourceGraphic" in2="BackgroundImageFix" result="shape"/>
<feGaussianBlur stdDeviation="2" result="effect1_foregroundBlur_2_321"/>
</filter>
<filter id="filter8_f_2_321" x="228.497" y="38.2068" width="124.297" height="214.493" filterUnits="userSpaceOnUse" color-interpolation-filters="sRGB">
<feFlood flood-opacity="0" result="BackgroundImageFix"/>
<feBlend mode="normal" in="SourceGraphic" in2="BackgroundImageFix" result="shape"/>
<feGaussianBlur stdDeviation="2" result="effect1_foregroundBlur_2_321"/>
</filter>
<filter id="filter9_d_2_321" x="444" y="74.5" width="115" height="154" filterUnits="userSpaceOnUse" color-interpolation-filters="sRGB">
<feFlood flood-opacity="0" result="BackgroundImageFix"/>
<feColorMatrix in="SourceAlpha" type="matrix" values="0 0 0 0 0 0 0 0 0 0 0 0 0 0 0 0 0 0 127 0" result="hardAlpha"/>
<feOffset/>
<feGaussianBlur stdDeviation="1.75"/>
<feColorMatrix type="matrix" values="0 0 0 0 1 0 0 0 0 1 0 0 0 0 1 0 0 0 1 0"/>
<feBlend mode="normal" in2="BackgroundImageFix" result="effect1_dropShadow_2_321"/>
<feBlend mode="normal" in="SourceGraphic" in2="effect1_dropShadow_2_321" result="shape"/>
</filter>
</defs>
</svg>
